<?xml version="1.0" encoding="UTF-8" standalone="no"?>
<svg
   xmlns:dc="http://purl.org/dc/elements/1.1/"
   xmlns:cc="http://creativecommons.org/ns#"
   xmlns:rdf="http://www.w3.org/1999/02/22-rdf-syntax-ns#"
   xmlns:svg="http://www.w3.org/2000/svg"
   xmlns="http://www.w3.org/2000/svg"
   xmlns:xlink="http://www.w3.org/1999/xlink"
   xmlns:sodipodi="http://sodipodi.sourceforge.net/DTD/sodipodi-0.dtd"
   xmlns:inkscape="http://www.inkscape.org/namespaces/inkscape"
   version="1.0"
   id="svg2"
   height="48"
   width="48"
   sodipodi:docname="app_icon.svg"
   inkscape:export-filename="favicon.png"
   inkscape:export-xdpi="32"
   inkscape:export-ydpi="32"
   inkscape:version="0.92.1 r15371">
  <sodipodi:namedview
     pagecolor="#ffffff"
     bordercolor="#666666"
     borderopacity="1"
     objecttolerance="10"
     gridtolerance="10"
     guidetolerance="10"
     inkscape:pageopacity="0"
     inkscape:pageshadow="2"
     inkscape:window-width="1920"
     inkscape:window-height="995"
     id="namedview152"
     showgrid="false"
     inkscape:zoom="4.9166667"
     inkscape:cx="-7.1186439"
     inkscape:cy="24"
     inkscape:window-x="0"
     inkscape:window-y="28"
     inkscape:window-maximized="1"
     inkscape:current-layer="svg2" />
  <defs
     id="defs4">
    <linearGradient
       id="linearGradient6111">
      <stop
         id="stop6113"
         offset="0"
         style="stop-color:#000000;stop-opacity:1;" />
      <stop
         id="stop6115"
         offset="1"
         style="stop-color:#000000;stop-opacity:0;" />
    </linearGradient>
    <linearGradient
       id="linearGradient7486">
      <stop
         id="stop7488"
         offset="0"
         style="stop-color:#204a87;stop-opacity:1" />
      <stop
         id="stop7490"
         offset="1"
         style="stop-color:#729fcf;stop-opacity:1" />
    </linearGradient>
    <linearGradient
       id="linearGradient7434">
      <stop
         id="stop7436"
         offset="0"
         style="stop-color:#ffffff;stop-opacity:1;" />
      <stop
         id="stop7438"
         offset="1"
         style="stop-color:#ffffff;stop-opacity:0;" />
    </linearGradient>
    <linearGradient
       id="linearGradient7426">
      <stop
         id="stop7428"
         offset="0"
         style="stop-color:#555753;stop-opacity:1;" />
      <stop
         id="stop7430"
         offset="1"
         style="stop-color:#888a85;stop-opacity:1" />
    </linearGradient>
    <linearGradient
       id="linearGradient7413">
      <stop
         id="stop7415"
         offset="0"
         style="stop-color:#000000;stop-opacity:1" />
      <stop
         id="stop7417"
         offset="1"
         style="stop-color:#000000;stop-opacity:0" />
    </linearGradient>
    <linearGradient
       id="linearGradient7392">
      <stop
         id="stop7394"
         offset="0"
         style="stop-color:#729fcf;stop-opacity:1;" />
      <stop
         id="stop7396"
         offset="1"
         style="stop-color:#729fcf;stop-opacity:0;" />
    </linearGradient>
    <linearGradient
       id="linearGradient7376">
      <stop
         id="stop7378"
         offset="0"
         style="stop-color:#ffffff;stop-opacity:1;" />
      <stop
         id="stop7380"
         offset="1"
         style="stop-color:#ffffff;stop-opacity:0;" />
    </linearGradient>
    <linearGradient
       id="linearGradient7368">
      <stop
         id="stop7370"
         offset="0"
         style="stop-color:#ffffff;stop-opacity:1;" />
      <stop
         id="stop7372"
         offset="1"
         style="stop-color:#ffffff;stop-opacity:0;" />
    </linearGradient>
    <linearGradient
       id="linearGradient1385">
      <stop
         id="stop1387"
         offset="0"
         style="stop-color:#888a85" />
      <stop
         id="stop1389"
         offset="1"
         style="stop-color:#d3d7cf" />
    </linearGradient>
    <linearGradient
       id="linearGradient2326">
      <stop
         style="stop-color:#c4a000"
         offset="0"
         id="stop2328" />
      <stop
         style="stop-color:#fce94f"
         offset="1"
         id="stop2330" />
    </linearGradient>
    <linearGradient
       id="linearGradient2304">
      <stop
         id="stop2306"
         offset="0"
         style="stop-color:#babdb6" />
      <stop
         id="stop2308"
         offset="1"
         style="stop-color:#ffffff;stop-opacity:1;" />
    </linearGradient>
    <linearGradient
       id="linearGradient2253">
      <stop
         id="stop2255"
         offset="0"
         style="stop-color:#e3e3e0;stop-opacity:1;" />
      <stop
         style="stop-color:#ffffff;stop-opacity:1;"
         offset="0.63095236"
         id="stop2261" />
      <stop
         id="stop2257"
         offset="1"
         style="stop-color:#babdb6" />
    </linearGradient>
    <linearGradient
       id="linearGradient2224">
      <stop
         id="stop2227"
         offset="0"
         style="stop-color:#ffffff;stop-opacity:1;" />
      <stop
         id="stop2229"
         offset="1"
         style="stop-color:#ffffff;stop-opacity:0;" />
    </linearGradient>
    <linearGradient
       id="linearGradient2311">
      <stop
         id="stop2313"
         offset="0"
         style="stop-color:#000000;stop-opacity:1;" />
      <stop
         id="stop2315"
         offset="1"
         style="stop-color:#000000;stop-opacity:0;" />
    </linearGradient>
    <linearGradient
       id="linearGradient2248">
      <stop
         id="stop2250"
         offset="0"
         style="stop-color:#ffffff;stop-opacity:1" />
      <stop
         id="stop2252"
         offset="1"
         style="stop-color:#babdb6" />
    </linearGradient>
    <linearGradient
       id="linearGradient2222">
      <stop
         id="stop2224"
         offset="0"
         style="stop-color:#d3d7cf" />
      <stop
         id="stop2226"
         offset="1"
         style="stop-color:#eeeeec" />
    </linearGradient>
    <linearGradient
       gradientTransform="matrix(1,0,0,0.921571,0,6.278146)"
       gradientUnits="userSpaceOnUse"
       y2="24.248672"
       x2="35.5"
       y1="31.190165"
       x1="35.5"
       id="linearGradient2220"
       xlink:href="#linearGradient2222" />
    <linearGradient
       gradientTransform="matrix(1.079998,0,0,1.003906,-1.91999,2.978515)"
       gradientUnits="userSpaceOnUse"
       y2="42.402618"
       x2="27.907354"
       y1="6.0832343"
       x1="12.171284"
       id="linearGradient2254"
       xlink:href="#linearGradient2248" />
    <radialGradient
       gradientUnits="userSpaceOnUse"
       gradientTransform="matrix(1,0,0,0.194396,1.033102e-15,31.22797)"
       r="25.234873"
       fy="38.763416"
       fx="25.323261"
       cy="38.763416"
       cx="25.323261"
       id="radialGradient2317"
       xlink:href="#linearGradient2311" />
    <linearGradient
       gradientTransform="matrix(1.148148,0,0,1,-3.555554,3)"
       gradientUnits="userSpaceOnUse"
       y2="19.551628"
       x2="16.5625"
       y1="26.5625"
       x1="16.5625"
       id="linearGradient2231"
       xlink:href="#linearGradient2224" />
    <linearGradient
       gradientTransform="matrix(1.1477854,0,0,0.9996857,-3.5468225,3.0088016)"
       gradientUnits="userSpaceOnUse"
       y2="28"
       x2="23.422913"
       y1="21.085749"
       x1="23.422913"
       id="linearGradient2259"
       xlink:href="#linearGradient2253" />
    <linearGradient
       y2="29.084894"
       x2="40.791222"
       y1="30.003317"
       x1="40.791222"
       gradientTransform="translate(0.4999989,4.0000011)"
       gradientUnits="userSpaceOnUse"
       id="linearGradient2322"
       xlink:href="#linearGradient2326" />
    <linearGradient
       y2="32.312057"
       x2="38.904327"
       y1="29.743778"
       x1="38.742561"
       gradientTransform="matrix(1.32799,0,0,1.499469,-13.7676,-11.73433)"
       gradientUnits="userSpaceOnUse"
       id="linearGradient2324"
       xlink:href="#linearGradient2304" />
    <linearGradient
       gradientTransform="matrix(1.079998,0,0,1.003906,-1.91999,-1.037109)"
       gradientUnits="userSpaceOnUse"
       y2="13.749178"
       x2="36.523464"
       y1="24.545469"
       x1="36.523464"
       id="linearGradient1391"
       xlink:href="#linearGradient1385" />
    <linearGradient
       id="linearGradient2258">
      <stop
         style="stop-color:#888a85"
         offset="0"
         id="stop2260" />
      <stop
         style="stop-color:#eeeeec"
         offset="1"
         id="stop2262" />
    </linearGradient>
    <linearGradient
       id="linearGradient2286">
      <stop
         id="stop2288"
         offset="0"
         style="stop-color:#babdb6" />
      <stop
         id="stop2291"
         offset="1"
         style="stop-color:#888a85" />
    </linearGradient>
    <linearGradient
       id="linearGradient2293">
      <stop
         id="stop2296"
         offset="0"
         style="stop-color:#eeeeec" />
      <stop
         style="stop-color:#ffffff;stop-opacity:1;"
         offset="0.10714286"
         id="stop2407" />
      <stop
         id="stop2298"
         offset="1"
         style="stop-color:#d3d7cf" />
    </linearGradient>
    <linearGradient
       id="linearGradient2313">
      <stop
         style="stop-color:#000000;stop-opacity:1;"
         offset="0"
         id="stop2317" />
      <stop
         style="stop-color:#000000;stop-opacity:0;"
         offset="1"
         id="stop2319" />
    </linearGradient>
    <linearGradient
       id="linearGradient2385">
      <stop
         id="stop2387"
         offset="0"
         style="stop-color:#eeeeec;stop-opacity:1;" />
      <stop
         style="stop-color:#babdb6;stop-opacity:1;"
         offset="0.27380952"
         id="stop2391" />
      <stop
         id="stop2393"
         offset="0.55909866"
         style="stop-color:#ffffff;stop-opacity:1;" />
      <stop
         id="stop2389"
         offset="1"
         style="stop-color:#eeeeec" />
    </linearGradient>
    <linearGradient
       id="linearGradient2395">
      <stop
         style="stop-color:#555753;stop-opacity:1;"
         offset="0"
         id="stop2397" />
      <stop
         style="stop-color:#a1a59b;stop-opacity:1;"
         offset="1"
         id="stop2399" />
    </linearGradient>
    <linearGradient
       gradientTransform="matrix(1.133333,0,0,1,-3.2,1)"
       y2="40.047997"
       x2="15.3125"
       y1="31.450399"
       x1="15.3125"
       gradientUnits="userSpaceOnUse"
       id="linearGradient4671"
       xlink:href="#linearGradient2313" />
    <linearGradient
       y2="32.515034"
       x2="34.482231"
       y1="42.001854"
       x1="34.482231"
       gradientTransform="matrix(1.145363,0,0,1,-3.453633,4)"
       gradientUnits="userSpaceOnUse"
       id="linearGradient4675"
       xlink:href="#linearGradient2293" />
    <linearGradient
       y2="35.788662"
       x2="41.498329"
       y1="40.899902"
       x1="41.498329"
       gradientTransform="matrix(1.145363,0,0,1,-3.453633,4)"
       gradientUnits="userSpaceOnUse"
       id="linearGradient4677"
       xlink:href="#linearGradient2286" />
    <linearGradient
       gradientTransform="matrix(1.121212,0,0,1,-2.909091,1)"
       y2="45.96875"
       x2="10"
       y1="40.96875"
       x1="9.96875"
       gradientUnits="userSpaceOnUse"
       id="linearGradient4690"
       xlink:href="#linearGradient2385" />
    <linearGradient
       gradientTransform="matrix(1.121212,0,0,1,-2.909091,1)"
       y2="39.999653"
       x2="40.375"
       y1="45.625"
       x1="40.375"
       gradientUnits="userSpaceOnUse"
       id="linearGradient4692"
       xlink:href="#linearGradient2395" />
    <linearGradient
       y2="43"
       x2="15.186372"
       y1="35.44585"
       x1="14.6074"
       gradientTransform="matrix(1.129032,0,0,1,-3.096776,1e-5)"
       gradientUnits="userSpaceOnUse"
       id="linearGradient4695"
       xlink:href="#linearGradient2258" />
    <linearGradient
       gradientUnits="userSpaceOnUse"
       y2="-11.026649"
       x2="15.437893"
       y1="20.773342"
       x1="27.568041"
       id="linearGradient7398"
       xlink:href="#linearGradient7392" />
    <linearGradient
       y2="28.819729"
       x2="34.825008"
       y1="6.1923113"
       x1="21.566757"
       gradientUnits="userSpaceOnUse"
       id="linearGradient7405"
       xlink:href="#linearGradient7368" />
    <linearGradient
       y2="5.480763"
       x2="15.95064"
       y1="18.107733"
       x1="24.03125"
       gradientUnits="userSpaceOnUse"
       id="linearGradient7407"
       xlink:href="#linearGradient7376" />
    <linearGradient
       y2="34.066803"
       x2="27"
       y1="30.003056"
       x1="27"
       gradientTransform="matrix(1,0,0,-1,0,49)"
       gradientUnits="userSpaceOnUse"
       id="linearGradient7424"
       xlink:href="#linearGradient7413" />
    <linearGradient
       gradientUnits="userSpaceOnUse"
       y2="24.367777"
       x2="0.75"
       y1="67.989044"
       x1="0.75"
       id="linearGradient7432"
       xlink:href="#linearGradient7426" />
    <linearGradient
       gradientUnits="userSpaceOnUse"
       y2="69.140259"
       x2="5.126524"
       y1="25.372583"
       x1="5.126524"
       id="linearGradient7440"
       xlink:href="#linearGradient7434" />
    <linearGradient
       gradientUnits="userSpaceOnUse"
       y2="2.5"
       x2="17.625"
       y1="17.470722"
       x1="21.875"
       id="linearGradient7492"
       xlink:href="#linearGradient7486" />
    <linearGradient
       gradientTransform="matrix(1,0,0,0.78125,0,5.03125)"
       gradientUnits="userSpaceOnUse"
       y2="20.995541"
       x2="19.75"
       y1="22.75"
       x1="19.75"
       id="linearGradient6117"
       xlink:href="#linearGradient6111" />
    <linearGradient
       y2="18.520807"
       x2="28.5"
       y1="9.122757"
       x1="32.426598"
       gradientTransform="matrix(1.0666667,0,0,1.0666667,5.3333333,0)"
       gradientUnits="userSpaceOnUse"
       id="linearGradient8016"
       xlink:href="#linearGradient7789" />
    <linearGradient
       id="linearGradient7789">
      <stop
         style="stop-color:#8ae234;stop-opacity:1"
         offset="0"
         id="stop7791" />
      <stop
         style="stop-color:#73d216;stop-opacity:1"
         offset="1"
         id="stop7793" />
    </linearGradient>
    <radialGradient
       r="6.1868596"
       fy="39.242989"
       fx="31.635492"
       cy="39.242989"
       cx="31.635492"
       gradientTransform="matrix(0.87232691,0,-2.7508269e-8,0.31718432,13.022733,27.914577)"
       gradientUnits="userSpaceOnUse"
       id="radialGradient8018"
       xlink:href="#linearGradient7434" />
    <linearGradient
       gradientTransform="matrix(1.0312395,0,0,1.1400629,7.816512,-6.6784256)"
       y2="43.406342"
       x2="35.606419"
       y1="40.792191"
       x1="33.786095"
       gradientUnits="userSpaceOnUse"
       id="linearGradient8020"
       xlink:href="#linearGradient7434" />
    <linearGradient
       y2="24.705801"
       x2="18.488775"
       y1="8.672389"
       x1="18.488775"
       gradientUnits="userSpaceOnUse"
       id="linearGradient8022"
       xlink:href="#linearGradient7434" />
    <linearGradient
       gradientTransform="scale(1.0666667)"
       y2="24.705801"
       x2="18.488775"
       y1="8.672389"
       x1="18.488775"
       gradientUnits="userSpaceOnUse"
       id="linearGradient8024"
       xlink:href="#linearGradient7434" />
    <radialGradient
       r="7"
       fy="19.956959"
       fx="33.457024"
       cy="19.956959"
       cx="33.457024"
       gradientTransform="matrix(0.96395403,-0.55653909,0.97896597,1.6956187,-15.09091,4.7294082)"
       gradientUnits="userSpaceOnUse"
       id="radialGradient8026"
       xlink:href="#linearGradient3390" />
    <linearGradient
       id="linearGradient3390">
      <stop
         id="stop3392"
         offset="0"
         style="stop-color:#ffffff;stop-opacity:0" />
      <stop
         id="stop3394"
         offset="1"
         style="stop-color:#ffffff;stop-opacity:1" />
    </linearGradient>
    <radialGradient
       r="6.1868596"
       fy="39.242989"
       fx="31.635492"
       cy="39.242989"
       cx="31.635492"
       gradientTransform="matrix(0.87232691,0,-2.7508269e-8,0.31718432,-0.84393407,18.314577)"
       gradientUnits="userSpaceOnUse"
       id="radialGradient8032"
       xlink:href="#linearGradient7434" />
    <linearGradient
       gradientTransform="matrix(1.0312395,0,0,1.1400629,-6.0501547,-16.278426)"
       y2="43.406342"
       x2="35.606419"
       y1="40.792191"
       x1="33.786095"
       gradientUnits="userSpaceOnUse"
       id="linearGradient8034"
       xlink:href="#linearGradient7434" />
    <linearGradient
       y2="24.705801"
       x2="18.488775"
       y1="8.672389"
       x1="18.488775"
       gradientTransform="scale(1.0666667)"
       gradientUnits="userSpaceOnUse"
       id="linearGradient1469"
       xlink:href="#linearGradient7434" />
    <linearGradient
       y2="24.705801"
       x2="18.488775"
       y1="8.672389"
       x1="18.488775"
       gradientUnits="userSpaceOnUse"
       id="linearGradient1471"
       xlink:href="#linearGradient7434" />
  </defs>
  <metadata
     id="metadata7">
    <rdf:RDF>
      <cc:Work
         rdf:about="">
        <dc:format>image/svg+xml</dc:format>
        <dc:type
           rdf:resource="http://purl.org/dc/dcmitype/StillImage" />
        <dc:creator>
          <cc:Agent>
            <dc:title>Lapo Calamandrei</dc:title>
          </cc:Agent>
        </dc:creator>
        <dc:title />
        <cc:license
           rdf:resource="http://creativecommons.org/licenses/GPL/2.0/" />
        <dc:subject>
          <rdf:Bag>
            <rdf:li>print</rdf:li>
            <rdf:li>document</rdf:li>
            <rdf:li>hardcopy</rdf:li>
          </rdf:Bag>
        </dc:subject>
      </cc:Work>
      <cc:License
         rdf:about="http://creativecommons.org/licenses/GPL/2.0/">
        <cc:permits
           rdf:resource="http://web.resource.org/cc/Reproduction" />
        <cc:permits
           rdf:resource="http://web.resource.org/cc/Distribution" />
        <cc:requires
           rdf:resource="http://web.resource.org/cc/Notice" />
        <cc:permits
           rdf:resource="http://web.resource.org/cc/DerivativeWorks" />
        <cc:requires
           rdf:resource="http://web.resource.org/cc/ShareAlike" />
        <cc:requires
           rdf:resource="http://web.resource.org/cc/SourceCode" />
      </cc:License>
    </rdf:RDF>
  </metadata>
  <g
     style="display:inline"
     id="layer1">
    <ellipse
       d="M 50.558134 38.763416 A 25.234873 4.9055533 0 1 1  0.088388443,38.763416 A 25.234873 4.9055533 0 1 1  50.558134 38.763416 z"
       transform="matrix(1.069348,0,0,0.56059,-3.064247,23.51962)"
       id="path2309"
       style="opacity:0.5;color:#000000;fill:url(#radialGradient2317);fill-opacity:1;fill-rule:nonzero;stroke:none;stroke-width:1;stroke-linecap:round;stroke-linejoin:miter;marker:none;marker-start:none;marker-mid:none;marker-end:none;stroke-miterlimit:4;stroke-dasharray:none;stroke-dashoffset:0;stroke-opacity:1;visibility:visible;display:inline;overflow:visible" />
    <path
       id="rect1314"
       d="M 7,21.5 L 4.75,24.24879 C 2.5994061,26.876137 1.5,29.317433 1.5,33.003719 L 1.5,43.601791 L 46.5,43.601791 L 46.5,33.003719 C 46.5,29.317433 45.400593,26.876136 43.25,24.24879 L 41,21.5 L 7,21.5 z "
       style="opacity:1;color:black;fill:url(#linearGradient2220);fill-opacity:1.0;fill-rule:nonzero;stroke:url(#linearGradient7432);stroke-width:1.00000012;stroke-linecap:square;stroke-linejoin:round;marker:none;marker-start:none;marker-mid:none;marker-end:none;stroke-miterlimit:4;stroke-dasharray:none;stroke-dashoffset:0;stroke-opacity:1;visibility:visible;display:inline;overflow:visible" />
    <path
       id="path2231"
       d="M 7.5118983,22.5625 L 5.5997361,24.851756 C 3.5643396,27.288549 2.5,29.337827 2.5,32.707966 L 2.5,42.625859 L 45.499995,42.625859 L 45.499995,32.707966 C 45.499995,29.337827 44.427883,27.294447 42.40026,24.851756 L 40.5,22.5625 L 7.5118983,22.5625 z "
       style="opacity:1;color:black;fill:none;fill-opacity:1.0;fill-rule:nonzero;stroke:url(#linearGradient7440);stroke-width:0.9999994;stroke-linecap:square;stroke-linejoin:miter;marker:none;marker-start:none;marker-mid:none;marker-end:none;stroke-miterlimit:4;stroke-dasharray:none;stroke-dashoffset:0;stroke-opacity:1;visibility:visible;display:inline;overflow:visible" />
    <path
       id="rect2228"
       d="M 8.3620756,22.5 L 39.352216,22.5 L 40.5,28 L 40.5,29 C 40.5,30.385 39.220221,31.5 37.630542,31.5 L 10.08375,31.5 C 8.4940706,31.5 7.2142926,30.385 7.2142926,29 L 7.2142926,28 L 8.3620756,22.5 z "
       style="color:#000000;fill:none;fill-opacity:1;fill-rule:nonzero;stroke:#babdb6;stroke-width:0.99999988;stroke-linecap:square;stroke-linejoin:round;marker:none;marker-start:none;marker-mid:none;marker-end:none;stroke-miterlimit:4;stroke-dashoffset:0;stroke-opacity:1;visibility:visible;display:inline;overflow:visible" />
    <g
       transform="translate(0,1)"
       style="opacity:0.8"
       id="g7400">
      <path
         id="path4978"
         d="M 24.063756,3 C 21.357514,3 18.626257,5 18.626256,5 C 18.057379,5 17.595006,8.8277939 17.595006,9.84375 L 17.595006,22.15625 L 30.470006,22.15625 L 30.470006,9.84375 C 30.470006,8.827794 30.007634,5 29.438756,5 C 29.438756,5 26.769998,3 24.063756,3 z M 24.032506,11 C 24.860505,11 25.532506,10.464 25.532506,13.5 C 25.532506,16.536 24.860506,19 24.032506,19 C 23.204506,19 22.532506,16.536 22.532506,13.5 C 22.532506,10.464 23.204506,11 24.032506,11 z "
         style="fill:url(#linearGradient7398);fill-opacity:1;fill-rule:evenodd;stroke:url(#linearGradient7492);stroke-width:0.99999982;stroke-linecap:square;stroke-linejoin:miter;stroke-miterlimit:4;stroke-dashoffset:0;stroke-opacity:1" />
      <path
         style="opacity:0.7;fill:none;fill-opacity:1;fill-rule:evenodd;stroke:url(#linearGradient7407);stroke-width:1;stroke-linecap:square;stroke-linejoin:round;stroke-miterlimit:4;stroke-dashoffset:0;stroke-opacity:1;display:inline"
         d="M 23.46875,9.96875 C 23.760604,9.9733245 23.931645,10 24.03125,10 C 24.130854,10 24.301896,9.9733245 24.59375,9.96875 C 24.885604,9.9641755 25.378316,10.03891 25.75,10.375 C 26.121684,10.71109 26.276981,11.138779 26.375,11.625 C 26.473019,12.111221 26.53125,12.704279 26.53125,13.5 C 26.531249,15.091443 26.367793,16.536841 26.0625,17.65625 C 25.909853,18.215955 25.706339,18.676587 25.4375,19.09375 C 25.168661,19.510913 24.731948,20 24.03125,20 C 23.330552,20 22.893839,19.510914 22.625,19.09375 C 22.356161,18.676586 22.152647,18.215955 22,17.65625 C 21.694707,16.536841 21.53125,15.091443 21.53125,13.5 C 21.53125,12.704279 21.589481,12.111221 21.6875,11.625 C 21.785519,11.138779 21.940816,10.71109 22.3125,10.375 C 22.684184,10.03891 23.176896,9.9641755 23.46875,9.96875 z "
         id="path6394" />
      <path
         style="opacity:0.7;fill:none;fill-opacity:1;fill-rule:evenodd;stroke:url(#linearGradient7405);stroke-width:1;stroke-linecap:square;stroke-linejoin:round;stroke-miterlimit:4;stroke-dashoffset:0;stroke-opacity:1;display:inline"
         d="M 24.0625,4 C 21.846684,4 19.21875,5.8125 19.21875,5.8125 C 19.217339,5.8157216 19.189006,5.8090121 19.1875,5.8125 C 19.169931,5.8531924 19.179015,5.8683386 19.15625,5.9375 C 19.061287,6.2260019 18.963659,6.7040203 18.875,7.21875 C 18.697682,8.2482093 18.59375,9.4867792 18.59375,9.84375 L 18.59375,21.15625 L 29.46875,21.15625 L 29.46875,9.84375 C 29.46875,9.4867777 29.364818,8.2482094 29.1875,7.21875 C 29.098841,6.7040203 29.001213,6.2260019 28.90625,5.9375 C 28.883485,5.8683386 28.892569,5.8531924 28.875,5.8125 C 28.869478,5.799711 28.847842,5.7902966 28.84375,5.78125 C 28.84375,5.78125 26.278315,4 24.0625,4 z "
         id="path7366" />
    </g>
    <path
       id="path7411"
       d="M 17.09375,12.75 L 17.09375,23.15625 C 17.094314,23.432158 17.317842,23.655686 17.59375,23.65625 L 30.46875,23.65625 C 30.744658,23.655686 30.968186,23.432158 30.96875,23.15625 L 30.96875,12.75 L 24.875,12.75 C 24.895914,12.810609 24.919993,12.850655 24.9375,12.9375 C 25.002325,13.259061 25.03125,13.759481 25.03125,14.5 C 25.03125,15.981037 24.848242,17.316862 24.59375,18.25 C 24.466504,18.716569 24.321943,19.072631 24.1875,19.28125 C 24.120278,19.385559 24.058691,19.44014 24.03125,19.46875 C 24.003809,19.44014 23.942222,19.385559 23.875,19.28125 C 23.740557,19.072631 23.595996,18.716569 23.46875,18.25 C 23.214258,17.316862 23.03125,15.981037 23.03125,14.5 C 23.03125,13.759481 23.060176,13.259061 23.125,12.9375 C 23.142507,12.850655 23.166586,12.810609 23.1875,12.75 L 17.09375,12.75 z "
       style="opacity:0.25;fill:url(#linearGradient7424);fill-opacity:1;fill-rule:evenodd;stroke:none;stroke-width:0.99999982;stroke-linecap:square;stroke-linejoin:miter;stroke-miterlimit:4;stroke-dashoffset:0;stroke-opacity:1;display:inline" />
    <path
       id="rect2233"
       d="M 12.120002,16.499998 L 35.879984,16.499998 C 36.777463,16.499998 37.499983,17.171611 37.499983,18.005857 L 37.499983,24.562494 L 10.500002,23.558588 L 10.500002,18.005857 C 10.500002,17.171611 11.222522,16.499998 12.120002,16.499998 z "
       style="color:black;fill:url(#linearGradient2254);fill-opacity:1;fill-rule:nonzero;stroke:url(#linearGradient1391);stroke-width:0.99999964;stroke-linecap:square;stroke-linejoin:round;marker:none;marker-start:none;marker-mid:none;marker-end:none;stroke-miterlimit:4;stroke-dashoffset:0;stroke-opacity:1;visibility:visible;display:inline;overflow:visible" />
    <rect
       ry="0.53124934"
       rx="0.62364197"
       y="17.499994"
       x="11.500031"
       height="7.0624847"
       width="24.999987"
       id="rect2256"
       style="opacity:1;color:black;fill:none;fill-opacity:1;fill-rule:nonzero;stroke:white;stroke-width:0.99999988;stroke-linecap:square;stroke-linejoin:round;marker:none;marker-start:none;marker-mid:none;marker-end:none;stroke-miterlimit:4;stroke-dasharray:none;stroke-dashoffset:0;stroke-opacity:1;visibility:visible;display:inline;overflow:visible" />
    <path
       id="path2246"
       d="M 9.2581617,24.0022 C 8.9837938,24.047797 8.786952,24.258804 8.7918737,24.502043 C 8.7918737,24.503198 8.7260528,24.78861 8.6484005,25.095607 C 8.5707483,25.402603 8.4679812,25.780216 8.3614541,26.157773 C 8.254927,26.535329 8.1566146,26.901429 8.0745077,27.219939 C 7.9924008,27.538448 7.9310345,27.751051 7.9310345,28.000943 L 7.9310345,29.000629 C 7.9310345,29.762305 8.3531464,30.362099 8.9353469,30.656358 C 9.5175475,30.950618 10.180521,31 10.800499,31 L 37.199569,31 C 37.819549,31 38.482521,30.950618 39.064721,30.656358 C 39.646922,30.362099 40.069035,29.762305 40.069035,29.000629 L 40.069035,28.000943 C 40.069035,27.755119 40.005172,27.538236 39.925561,27.219939 C 39.845949,26.901642 39.741976,26.535336 39.638615,26.157773 C 39.535252,25.780209 39.427068,25.402838 39.351668,25.095607 C 39.276268,24.788375 39.244063,24.50688 39.244063,24.502043 C 39.244031,24.225999 38.987109,24.002228 38.670171,24.0022 L 9.3657666,24.0022 C 9.3299775,23.999265 9.2939508,23.999265 9.2581617,24.0022 z "
       style="color:#000000;fill:url(#linearGradient2259);fill-opacity:1;fill-rule:nonzero;stroke:none;stroke-width:1;stroke-linecap:square;stroke-linejoin:round;marker:none;marker-start:none;marker-mid:none;marker-end:none;stroke-miterlimit:4;stroke-dasharray:none;stroke-dashoffset:0;stroke-opacity:1;visibility:visible;display:inline;overflow:visible" />
    <path
       id="path2235"
       d="M 9.074074,24.5 C 9.074074,25 8.5,27.547514 8.5,28 L 8.5,29 C 8.5,30.259091 9.648148,30.5 10.796296,30.5 L 37.2037,30.5 C 38.351848,30.5 39.499996,30.259091 39.499996,29 L 39.499996,28 C 39.499996,27.547514 38.925922,25 38.925922,24.5 L 9.074074,24.5 z "
       style="color:#000000;fill:none;fill-opacity:1;fill-rule:nonzero;stroke:url(#linearGradient2231);stroke-width:0.99999994;stroke-linecap:square;stroke-linejoin:round;marker:none;marker-start:none;marker-mid:none;marker-end:none;stroke-miterlimit:4;stroke-dasharray:none;stroke-dashoffset:0;stroke-opacity:1;visibility:visible;display:inline;overflow:visible" />
    <path
       id="path2259"
       d="M 8.734832,23.5 L 39.371894,23.5"
       style="fill:#888a85;fill-opacity:0.75;fill-rule:evenodd;stroke:#babdb6;stroke-width:1;stroke-linecap:round;stroke-linejoin:miter;stroke-miterlimit:4;stroke-dasharray:none;stroke-opacity:1" />
    <rect
       ry="1"
       rx="1.0000005"
       y="32.5"
       x="41"
       height="2"
       width="3"
       id="rect2320"
       style="opacity:1;color:#000000;fill:url(#linearGradient2322);fill-opacity:1;fill-rule:nonzero;stroke:url(#linearGradient2324);stroke-width:1.00000012;stroke-linecap:square;stroke-linejoin:miter;marker:none;marker-start:none;marker-mid:none;marker-end:none;stroke-miterlimit:4;stroke-dasharray:none;stroke-dashoffset:0;stroke-opacity:1;visibility:visible;display:inline;overflow:visible" />
    <path
       style="color:black;fill:#6a6f64;fill-opacity:1;fill-rule:nonzero;stroke:url(#linearGradient4695);stroke-width:0.99999976;stroke-linecap:square;stroke-linejoin:miter;marker:none;marker-start:none;marker-mid:none;marker-end:none;stroke-miterlimit:4;stroke-dasharray:none;stroke-dashoffset:0;stroke-opacity:1;visibility:visible;display:inline;overflow:visible"
       d="M 8.1935474,36.500009 L 39.806452,36.5 C 40.770137,36.5 41.500001,37.135537 41.500001,37.79956 L 41.500001,42.5 L 6.499999,42.500009 L 6.499999,37.799569 C 6.499999,37.059131 7.2736571,36.500009 8.1935474,36.500009 z "
       id="path4559" />
    <path
       style="color:black;fill:url(#linearGradient4690);fill-opacity:1;fill-rule:nonzero;stroke:url(#linearGradient4692);stroke-width:1;stroke-linecap:round;stroke-linejoin:round;marker:none;marker-start:none;marker-mid:none;marker-end:none;stroke-miterlimit:4;stroke-dashoffset:0;stroke-opacity:1;visibility:visible;display:inline;overflow:visible"
       d="M 8.303029,41.5 L 39.696965,41.5 C 41.343745,41.5 40.818177,43.5 40.818177,43.5 L 42.499995,46 C 42.499995,47.385 41.249844,47.5 39.696965,47.5 L 8.303029,47.5 C 6.7501504,47.5 5.499999,47.385 5.499999,46 L 7.181817,43.5 C 7.181817,43.5 6.621211,41.5 8.303029,41.5 z "
       id="path2379" />
    <path
       style="color:black;fill:url(#linearGradient4675);fill-opacity:1;fill-rule:nonzero;stroke:url(#linearGradient4677);stroke-width:0.99999982;stroke-linecap:butt;stroke-linejoin:round;marker:none;marker-start:none;marker-mid:none;marker-end:none;stroke-miterlimit:4;stroke-dashoffset:0;stroke-opacity:1;visibility:visible;display:inline;overflow:visible"
       d="M 38.352116,37 C 38.352116,42 40.070161,45.5 40.070161,45.5 L 7.999997,45.5 C 7.999997,45.5 9.7180415,42 9.7180415,37"
       id="path2275" />
    <g
       transform="translate(0,1)"
       style="opacity:0.2;stroke:#2e3436"
       id="g6409">
      <path
         style="fill:none;fill-rule:evenodd;stroke:#2e3436;stroke-width:1px;stroke-linecap:round;stroke-linejoin:miter;stroke-opacity:1"
         d="M 13,39.5 L 25,39.5"
         id="path5436" />
      <path
         style="fill:none;fill-rule:evenodd;stroke:#2e3436;stroke-width:1px;stroke-linecap:round;stroke-linejoin:miter;stroke-opacity:1"
         d="M 13.204658,37.5 L 34.795343,37.5"
         id="path5438" />
    </g>
    <path
       style="opacity:1;color:black;fill:none;fill-opacity:1;fill-rule:nonzero;stroke:white;stroke-width:1;stroke-linecap:butt;stroke-linejoin:miter;marker:none;marker-start:none;marker-mid:none;marker-end:none;stroke-miterlimit:4;stroke-dashoffset:0;stroke-opacity:1;visibility:visible;display:inline;overflow:visible"
       d="M 37.34,37 C 37.30375,41 38.5,44.5 38.5,44.5 L 9.5,44.5 C 9.5,44.5 10.66,41 10.66,37"
       id="path2335" />
    <path
       style="opacity:0.50588229;color:#000000;fill:url(#linearGradient4671);fill-opacity:1;fill-rule:nonzero;stroke:none;stroke-width:0.99999982;stroke-linecap:square;stroke-linejoin:miter;marker:none;marker-start:none;marker-mid:none;marker-end:none;stroke-miterlimit:4;stroke-dasharray:none;stroke-dashoffset:0;stroke-opacity:1;visibility:visible;display:inline;overflow:visible"
       d="M 8.1333333,37 L 39.866667,37 C 40.800669,37 41,37.446647 41,38 L 41,42 L 7,42 L 7,38 C 7,37.382968 7.2417853,37 8.1333333,37 z "
       id="path2300" />
    <g
       id="g2637"
       style="display:inline"
       transform="translate(-222.0151,22.99999)" />
    <g
       transform="translate(-161.92009,22.506087)"
       style="display:inline"
       id="g6239" />
    <g
       transform="translate(60.095006,0.5060967)"
       style="display:inline"
       id="g6266" />
    <rect
       y="21.4375"
       x="10"
       height="1.5625"
       width="28"
       id="rect6109"
       style="opacity:0.15;fill:url(#linearGradient6117);fill-opacity:1;fill-rule:evenodd;stroke:none;stroke-width:1.5;stroke-linecap:round;stroke-linejoin:round;stroke-miterlimit:4;stroke-dasharray:none;stroke-opacity:1" />
    <g
       transform="translate(-11.733334,-1.06669)"
       id="g8005"
       style="display:inline">
      <path
         id="rect2415"
         d="m 33.6,5.8666667 v 7.4666663 15.8 c -1.2448,-0.558291 -2.934944,-0.866665 -4.8,-0.866666 -3.819637,0 -6.933333,1.424545 -6.933333,3.2 0,1.775456 3.113696,3.200001 6.933333,3.2 3.819637,0 6.933333,-1.424542 6.933333,-3.2 v -16.7 l 11.733334,7.8 v 16.166666 c -1.2448,-0.558291 -2.934944,-0.866665 -4.8,-0.866666 -3.819638,0 -6.933334,1.424545 -6.933334,3.2 0,1.775456 3.113696,3.200001 6.933334,3.2 3.819637,0 6.933333,-1.424542 6.933333,-3.2 V 24 18.666667 16.533333 Z"
         style="color:#000000;display:inline;overflow:visible;visibility:visible;fill:url(#linearGradient8016);fill-opacity:1;fill-rule:nonzero;stroke:#448705;stroke-width:1.06666672;stroke-linecap:round;stroke-linejoin:round;stroke-miterlimit:4;stroke-dashoffset:0;stroke-opacity:1;marker:none;marker-start:none;marker-mid:none;marker-end:none" />
      <ellipse
         ry="2.1060717"
         rx="5.8406949"
         cy="41.066647"
         cx="42.658066"
         style="color:#000000;display:inline;overflow:visible;visibility:visible;opacity:0.7;fill:url(#radialGradient8018);fill-opacity:1;fill-rule:nonzero;stroke:url(#linearGradient8020);stroke-width:1.0666666;stroke-linecap:square;stroke-linejoin:miter;stroke-miterlimit:4;stroke-dasharray:none;stroke-dashoffset:0;stroke-opacity:1;marker:none;marker-start:none;marker-mid:none;marker-end:none"
         id="path2237" />
      <g
         id="g3361"
         style="opacity:0.6529851"
         transform="translate(5.3333333,1.0666667)">
        <g
           transform="translate(9.6,3.2)"
           style="opacity:1;fill-opacity:1;stroke:url(#linearGradient1471)"
           id="g3392">
          <path
             id="path2387"
             d="M 19.733333,27.2 V 4.8"
             style="display:inline;opacity:1;fill:none;fill-opacity:1;fill-rule:evenodd;stroke:url(#linearGradient1469);stroke-width:1.06666672;stroke-linecap:round;stroke-linejoin:round;stroke-miterlimit:4;stroke-dasharray:none;stroke-opacity:0.973384" />
        </g>
        <path
           id="path3264"
           d="M 29.333333,6.8 V 12.266667 13.6 c 0.02863,-0.38041 0.258221,-0.716575 0.602139,-0.881655 C 30.27939,12.553264 30.685283,12.584398 31,12.8 l 11.733333,7.8 c 0.269239,0.181712 0.44102,0.476193 0.466667,0.8 v -3.8 -1.533333 z"
           style="color:#000000;display:inline;overflow:visible;visibility:visible;opacity:1;fill:none;fill-opacity:1;fill-rule:nonzero;stroke:url(#radialGradient8026);stroke-width:1.06666672;stroke-linecap:round;stroke-linejoin:miter;stroke-miterlimit:4;stroke-dashoffset:0;stroke-opacity:1;marker:none;marker-start:none;marker-mid:none;marker-end:none" />
        <g
           transform="translate(23.466667,13.866667)"
           style="opacity:1;fill-opacity:1;stroke:url(#linearGradient8022)"
           id="g3353">
          <path
             id="path3355"
             d="M 19.733333,27.2 V 2.6666667"
             style="display:inline;opacity:1;fill:none;fill-opacity:1;fill-rule:evenodd;stroke:url(#linearGradient8024);stroke-width:1.06666672;stroke-linecap:round;stroke-linejoin:round;stroke-miterlimit:4;stroke-dasharray:none;stroke-opacity:0.973384" />
        </g>
      </g>
      <ellipse
         ry="2.1060717"
         rx="5.8406949"
         cy="31.466646"
         cx="28.791399"
         style="color:#000000;display:inline;overflow:visible;visibility:visible;opacity:0.7;fill:url(#radialGradient8032);fill-opacity:1;fill-rule:nonzero;stroke:url(#linearGradient8034);stroke-width:1.0666666;stroke-linecap:square;stroke-linejoin:miter;stroke-miterlimit:4;stroke-dasharray:none;stroke-dashoffset:0;stroke-opacity:1;marker:none;marker-start:none;marker-mid:none;marker-end:none"
         id="path7999" />
    </g>
  </g>
  <g
     style="display:inline"
     id="layer2" />
</svg>
